<?xml version="1.0" encoding="UTF-8" standalone="no"?>
<!-- Created with Inkscape (http://www.inkscape.org/) -->

<svg
   version="1.1"
   id="svg1"
   width="266.66687"
   height="229.14238"
   viewBox="0 0 266.66687 229.14238"
   xmlns="http://www.w3.org/2000/svg"
   xmlns:svg="http://www.w3.org/2000/svg">
  <defs
     id="defs1">
    <clipPath
       clipPathUnits="userSpaceOnUse"
       id="clipPath2">
      <path
         d="M 0,841.89 H 595.276 V 0 H 0 Z"
         transform="translate(-273.06561,-665.91641)"
         id="path2" />
    </clipPath>
    <clipPath
       clipPathUnits="userSpaceOnUse"
       id="clipPath4">
      <path
         d="M 0,841.89 H 595.276 V 0 H 0 Z"
         transform="translate(-314.80081,-695.27792)"
         id="path4" />
    </clipPath>
    <clipPath
       clipPathUnits="userSpaceOnUse"
       id="clipPath6">
      <path
         d="M 0,841.89 H 595.276 V 0 H 0 Z"
         transform="translate(-319.62401,-749.38422)"
         id="path6" />
    </clipPath>
    <clipPath
       clipPathUnits="userSpaceOnUse"
       id="clipPath8">
      <path
         d="M 0,841.89 H 595.276 V 0 H 0 Z"
         transform="translate(-316.68111,-740.56512)"
         id="path8" />
    </clipPath>
    <clipPath
       clipPathUnits="userSpaceOnUse"
       id="clipPath10">
      <path
         d="M 0,841.89 H 595.276 V 0 H 0 Z"
         transform="translate(-381.70101,-707.86362)"
         id="path10" />
    </clipPath>
    <clipPath
       clipPathUnits="userSpaceOnUse"
       id="clipPath12">
      <path
         d="M 0,841.89 H 595.276 V 0 H 0 Z"
         transform="translate(-314.17161,-732.18532)"
         id="path12" />
    </clipPath>
    <clipPath
       clipPathUnits="userSpaceOnUse"
       id="clipPath14">
      <path
         d="M 0,841.89 H 595.276 V 0 H 0 Z"
         transform="translate(-370.79721,-707.86562)"
         id="path14" />
    </clipPath>
    <clipPath
       clipPathUnits="userSpaceOnUse"
       id="clipPath16">
      <path
         d="M 0,841.89 H 595.276 V 0 H 0 Z"
         transform="translate(-311.23621,-723.37772)"
         id="path16" />
    </clipPath>
    <clipPath
       clipPathUnits="userSpaceOnUse"
       id="clipPath18">
      <path
         d="M 0,841.89 H 595.276 V 0 H 0 Z"
         transform="translate(-359.05261,-707.86562)"
         id="path18" />
    </clipPath>
    <clipPath
       clipPathUnits="userSpaceOnUse"
       id="clipPath20">
      <path
         d="M 0,841.89 H 595.276 V 0 H 0 Z"
         transform="translate(-397.63781,-664.66022)"
         id="path20" />
    </clipPath>
    <clipPath
       clipPathUnits="userSpaceOnUse"
       id="clipPath22">
      <path
         d="M 0,841.89 H 595.276 V 0 H 0 Z"
         transform="translate(-307.87301,-712.89282)"
         id="path22" />
    </clipPath>
    <clipPath
       clipPathUnits="userSpaceOnUse"
       id="clipPath24">
      <path
         d="M 0,841.89 H 595.276 V 0 H 0 Z"
         transform="translate(-388.40981,-666.33802)"
         id="path24" />
    </clipPath>
    <clipPath
       clipPathUnits="userSpaceOnUse"
       id="clipPath26">
      <path
         d="M 0,841.89 H 595.276 V 0 H 0 Z"
         transform="translate(-379.18191,-667.59632)"
         id="path26" />
    </clipPath>
    <clipPath
       clipPathUnits="userSpaceOnUse"
       id="clipPath28">
      <path
         d="M 0,841.89 H 595.276 V 0 H 0 Z"
         transform="translate(-346.04971,-707.86562)"
         id="path28" />
    </clipPath>
    <clipPath
       clipPathUnits="userSpaceOnUse"
       id="clipPath30">
      <path
         d="M 0,841.89 H 595.276 V 0 H 0 Z"
         transform="translate(-369.95401,-668.01572)"
         id="path30" />
    </clipPath>
    <clipPath
       clipPathUnits="userSpaceOnUse"
       id="clipPath32">
      <path
         d="M 0,841.89 H 595.276 V 0 H 0 Z"
         transform="translate(-360.30681,-669.69352)"
         id="path32" />
    </clipPath>
    <clipPath
       clipPathUnits="userSpaceOnUse"
       id="clipPath34">
      <path
         d="M 0,841.89 H 595.276 V 0 H 0 Z"
         transform="translate(-314.80081,-695.27792)"
         id="path34" />
    </clipPath>
    <clipPath
       clipPathUnits="userSpaceOnUse"
       id="clipPath36">
      <path
         d="M 0,841.89 H 595.276 V 0 H 0 Z"
         transform="translate(-296.1055,-613.62812)"
         id="path36" />
    </clipPath>
    <clipPath
       clipPathUnits="userSpaceOnUse"
       id="clipPath38">
      <path
         d="M 0,841.89 H 595.276 V 0 H 0 Z"
         transform="translate(-321.34041,-600.55792)"
         id="path38" />
    </clipPath>
    <clipPath
       clipPathUnits="userSpaceOnUse"
       id="clipPath40">
      <path
         d="M 0,841.89 H 595.276 V 0 H 0 Z"
         transform="translate(-302.85531,-582.64801)"
         id="path40" />
    </clipPath>
    <clipPath
       clipPathUnits="userSpaceOnUse"
       id="clipPath42">
      <path
         d="M 0,841.89 H 595.276 V 0 H 0 Z"
         transform="translate(-307.73511,-589.09531)"
         id="path42" />
    </clipPath>
    <clipPath
       clipPathUnits="userSpaceOnUse"
       id="clipPath44">
      <path
         d="M 0,841.89 H 595.276 V 0 H 0 Z"
         transform="translate(-332.87481,-587.89822)"
         id="path44" />
    </clipPath>
    <clipPath
       clipPathUnits="userSpaceOnUse"
       id="clipPath46">
      <path
         d="M 0,841.89 H 595.276 V 0 H 0 Z"
         transform="translate(-344.98571,-589.07431)"
         id="path46" />
    </clipPath>
  </defs>
  <g
     id="layer-MC0"
     transform="translate(-263.51685,-121.24985)">
    <g
       id="g97">
      <path
         id="path1"
         d="m 0,0 h -48.656 l -2.095,-24.326 c 8.035,4.09 16.217,6.439 25.37,5.866 21.642,-1.355 35.244,-17.005 32.459,-38.743 -4.603,-35.93 -56.845,-37.23 -77.137,-14.324 -1.16,1.309 -6.177,7.594 -5.257,9.033 l 15.551,9.2 c 6.763,-11.959 17.334,-19.489 31.666,-16.129 11.448,2.684 17.508,14.515 11.657,25.087 -5.469,9.882 -19.717,11.263 -29.149,6.666 -1.84,-0.897 -6.544,-4.779 -7.857,-4.689 l -16.123,7.183 4.556,52.373 H 0.21 c 0.209,0 0.69,-0.692 0.642,-1.043 z"
         style="fill:#ed1d24;fill-opacity:1;fill-rule:nonzero;stroke:none"
         transform="matrix(1.3333333,0,0,-1.3333333,364.08747,234.63147)"
         clip-path="url(#clipPath2)" />
      <path
         id="path3"
         d="M 0,0 C -7.34,0.018 -14.686,-0.013 -22.021,0 L -3.764,-13.823 -10.692,-35.653 7.97,-22.356 26.421,-35.657 19.702,-13.822 37.956,-0.001 14.932,0.043 7.97,21.396 0.642,-0.254 C 0.351,-0.466 0.082,0 0,0 M 21.182,8.389 H 64.385 L 29.782,-17.182 42.989,-58.303 7.969,-33.141 -27.05,-58.303 -13.843,-17.182 -48.446,8.389 H -5.243 L 7.97,49.08 Z"
         style="fill:#f89c0f;fill-opacity:1;fill-rule:nonzero;stroke:none"
         transform="matrix(1.3333333,0,0,-1.3333333,419.7344,195.4828)"
         clip-path="url(#clipPath4)" />
      <path
         id="path5"
         d="m 0,0 -0.671,-2.127 c -39.457,7.745 -79.462,-10.486 -101.251,-43.59 0.462,1.767 1.824,3.41 2.84,4.916 12.271,18.202 31.793,32.404 52.944,38.496 C -31.036,2.044 -15.478,2.609 0,0"
         style="fill:#ed1d24;fill-opacity:1;fill-rule:nonzero;stroke:none"
         transform="matrix(1.3333333,0,0,-1.3333333,426.16533,123.34107)"
         clip-path="url(#clipPath6)" />
      <path
         id="path7"
         d="m 0,0 -0.425,-2.084 c -2.538,0.472 -5.174,1.033 -7.752,1.254 -20.406,1.752 -41.371,-3.651 -58.221,-15.174 -7.596,-5.194 -13.93,-11.537 -19.997,-18.377 0.125,0.976 1.09,1.922 1.69,2.71 8.749,11.488 22.678,21.496 36.062,26.855 C -33.334,1.314 -16.23,2.874 0,0"
         style="fill:#f03e1e;fill-opacity:1;fill-rule:nonzero;stroke:none"
         transform="matrix(1.3333333,0,0,-1.3333333,422.24147,135.09987)"
         clip-path="url(#clipPath8)" />
      <path
         id="path9"
         d="m 0,0 -1.913,0.389 c -10.755,15.167 -26.024,26.957 -43.274,33.905 -1.845,0.743 -8.111,2.33 -9.092,3.073 -0.676,0.512 -1.063,1.642 -1.082,2.478 18.028,-4.931 34.352,-15.021 46.985,-28.721 z"
         style="fill:#ed1d24;fill-opacity:1;fill-rule:nonzero;stroke:none"
         transform="matrix(1.3333333,0,0,-1.3333333,508.93467,178.70187)"
         clip-path="url(#clipPath10)" />
      <path
         id="path11"
         d="m 0,0 -1.098,-2.065 c -26.435,4.218 -53.179,-5.102 -71.463,-24.356 -0.183,0.786 0.438,0.998 0.834,1.469 3.205,3.805 8.625,8.288 12.702,11.207 C -41.997,-1.548 -20.743,3.063 0,0"
         style="fill:#f2551a;fill-opacity:1;fill-rule:nonzero;stroke:none"
         transform="matrix(1.3333333,0,0,-1.3333333,418.89547,146.27293)"
         clip-path="url(#clipPath12)" />
      <path
         id="path13"
         d="M 0,0 C -2.425,-0.496 -2.39,0.888 -3.558,2.1 -14,12.931 -25.47,21.977 -39.986,26.808 l -1.12,2.545 C -24.939,23.838 -10.265,13.676 0,0"
         style="fill:#f03e1e;fill-opacity:1;fill-rule:nonzero;stroke:none"
         transform="matrix(1.3333333,0,0,-1.3333333,494.39627,178.6992)"
         clip-path="url(#clipPath14)" />
      <path
         id="path15"
         d="m 0,0 -0.704,-1.689 c -12.216,1.305 -23.923,0.341 -35.473,-3.866 -4.334,-1.579 -8.317,-3.842 -12.48,-5.763 C -34.914,-1.343 -16.786,2.532 0,0"
         style="fill:#f47016;fill-opacity:1;fill-rule:nonzero;stroke:none"
         transform="matrix(1.3333333,0,0,-1.3333333,414.9816,158.0164)"
         clip-path="url(#clipPath16)" />
      <path
         id="path17"
         d="m 0,0 c -0.846,-0.005 -1.698,-0.151 -2.509,0.213 -0.629,0.282 -4.533,4.308 -5.681,5.225 -5.09,4.069 -10.645,7.515 -16.546,10.299 l -0.846,2.714 C -16.074,13.889 -6.936,8.035 0,0"
         style="fill:#f2551a;fill-opacity:1;fill-rule:nonzero;stroke:none"
         transform="matrix(1.3333333,0,0,-1.3333333,478.7368,178.6992)"
         clip-path="url(#clipPath18)" />
      <path
         id="path19"
         d="m 0,0 -2.3,10.907 c -1.592,9.375 -7.119,17.119 -10.721,25.354 -0.744,1.701 0.411,2.075 1.503,0.241 C -5.157,25.816 -1.134,12.341 0,0"
         style="fill:#ed1d24;fill-opacity:1;fill-rule:nonzero;stroke:none"
         transform="matrix(1.3333333,0,0,-1.3333333,530.18373,236.3064)"
         clip-path="url(#clipPath20)" />
      <path
         id="path21"
         d="m 0,0 -9.847,0.835 -16.569,-2.507 3.451,1.366 c 4.002,1.019 8.136,2.124 12.28,2.401 1.786,0.119 9.172,0.328 10.417,-0.06 C 0.872,1.679 0.123,0.768 0,0"
         style="fill:#f89c0f;fill-opacity:1;fill-rule:nonzero;stroke:none"
         transform="matrix(1.3333333,0,0,-1.3333333,410.49733,171.99627)"
         clip-path="url(#clipPath22)" />
      <path
         id="path23"
         d="m 0,0 -4.602,16.154 c -1.038,4.415 -4.861,9.122 -6.225,13.075 -0.137,0.397 -0.845,1.212 0.142,1.387 0.77,0.136 0.966,-0.785 1.263,-1.245 C -4.379,21.574 -1.312,9.13 0,0"
         style="fill:#f03e1e;fill-opacity:1;fill-rule:nonzero;stroke:none"
         transform="matrix(1.3333333,0,0,-1.3333333,517.87973,234.06933)"
         clip-path="url(#clipPath24)" />
      <path
         id="path25"
         d="m 0,0 -3.875,12.267 c -0.966,3.604 -3.879,7.139 -5.021,10.503 -0.27,0.795 -0.584,0.905 0.302,1.548 C -4.194,16.964 -1.184,8.494 0,0"
         style="fill:#f2551a;fill-opacity:1;fill-rule:nonzero;stroke:none"
         transform="matrix(1.3333333,0,0,-1.3333333,505.57587,232.3916)"
         clip-path="url(#clipPath26)" />
      <path
         id="path27"
         d="M 0,0 C -2.074,-0.596 -6.268,1.929 -7.667,3.328 -8.296,3.956 -8.674,5.398 -8.804,6.287 -8.459,6.705 -0.505,0.896 0,0"
         style="fill:#f47016;fill-opacity:1;fill-rule:nonzero;stroke:none"
         transform="matrix(1.3333333,0,0,-1.3333333,461.3996,178.6992)"
         clip-path="url(#clipPath28)" />
      <path
         id="path29"
         d="m 0,0 -3.147,9.22 c -0.987,2.766 -2.652,5.273 -3.804,7.944 -0.144,0.333 -1.058,1.107 0.041,1.288 0.773,0.126 0.966,-0.777 1.263,-1.245 C -2.84,12.784 -0.964,5.127 0,0"
         style="fill:#f47016;fill-opacity:1;fill-rule:nonzero;stroke:none"
         transform="matrix(1.3333333,0,0,-1.3333333,493.272,231.8324)"
         clip-path="url(#clipPath30)" />
      <path
         id="path31"
         d="M 0,0 -3.696,8.671 C -3.788,8.881 -6.009,11.844 -4.4,11.734 -3.569,11.678 0.185,1.654 0,0"
         style="fill:#f89c0f;fill-opacity:1;fill-rule:nonzero;stroke:none"
         transform="matrix(1.3333333,0,0,-1.3333333,480.40907,229.59533)"
         clip-path="url(#clipPath32)" />
      <path
         id="path33"
         d="M 0,0 C 0.082,0 0.351,-0.466 0.642,-0.254 L 7.97,21.396 14.932,0.043 37.956,-0.001 19.702,-13.822 26.421,-35.657 7.97,-22.356 -10.692,-35.653 -3.764,-13.823 -22.021,0 C -14.686,-0.013 -7.34,0.018 0,0"
         style="fill:#ed1d24;fill-opacity:1;fill-rule:nonzero;stroke:none"
         transform="matrix(1.3333333,0,0,-1.3333333,419.7344,195.4828)"
         clip-path="url(#clipPath34)" />
      <path
         id="path35"
         d="m 0,0 h 11.545 l 1.373,-4.007 H -1.202 Z M -7.94,-13.07 5.579,22.849 H 5.837 L 19.399,-13.07 H 14.635 L 4.506,15.599 7.468,17.745 -3.82,-13.07 Z"
         style="fill:#f89c0f;fill-opacity:1;fill-rule:nonzero;stroke:none"
         transform="matrix(1.3333333,0,0,-1.3333333,394.80733,304.3492)"
         clip-path="url(#clipPath36)" />
      <path
         id="path37"
         d="m 0,0 v 35.586 h 0.043 l 16.266,-25.712 -1.76,0.43 16.266,25.282 h 0.043 V 0 h -4.163 v 25.091 l 0.3,-2.337 L 15.322,4.341 H 15.236 L 3.348,22.754 4.034,24.9 V 0 Z"
         style="fill:#f89c0f;fill-opacity:1;fill-rule:nonzero;stroke:none"
         transform="matrix(1.3333333,0,0,-1.3333333,428.45387,321.77613)"
         clip-path="url(#clipPath38)" />
      <path
         id="path39"
         d="m 0,0 c -0.269,-0.168 -0.635,-0.357 -1.097,-0.567 -0.463,-0.21 -1.004,-0.385 -1.623,-0.525 -0.619,-0.14 -1.302,-0.21 -2.048,-0.21 -1.239,0.014 -2.362,0.224 -3.369,0.63 -1.008,0.406 -1.866,0.959 -2.575,1.659 -0.709,0.7 -1.25,1.508 -1.623,2.426 -0.373,0.916 -0.56,1.893 -0.56,2.929 0,1.134 0.194,2.181 0.583,3.14 0.388,0.959 0.943,1.792 1.667,2.499 0.724,0.707 1.575,1.256 2.552,1.649 0.978,0.391 2.049,0.588 3.213,0.588 0.97,0 1.85,-0.123 2.641,-0.368 0.791,-0.245 1.47,-0.529 2.038,-0.85 l -0.874,-1.932 c -0.447,0.293 -0.992,0.566 -1.634,0.818 -0.642,0.252 -1.343,0.379 -2.104,0.379 -0.791,0 -1.537,-0.147 -2.239,-0.442 -0.701,-0.294 -1.32,-0.707 -1.858,-1.239 -0.537,-0.532 -0.959,-1.148 -1.265,-1.848 -0.306,-0.7 -0.458,-1.463 -0.458,-2.289 0,-0.812 0.137,-1.571 0.414,-2.278 0.276,-0.707 0.671,-1.323 1.186,-1.848 0.515,-0.525 1.138,-0.935 1.869,-1.229 0.731,-0.294 1.552,-0.441 2.463,-0.441 0.82,0 1.552,0.119 2.194,0.357 0.641,0.238 1.171,0.504 1.589,0.798 z"
         style="fill:#ed1d24;fill-opacity:1;fill-rule:nonzero;stroke:none"
         transform="matrix(1.3333333,0,0,-1.3333333,403.80707,345.656)"
         clip-path="url(#clipPath40)" />
      <path
         id="path41"
         d="m 0,0 c 0,-0.812 0.153,-1.565 0.459,-2.258 0.306,-0.693 0.739,-1.305 1.298,-1.837 0.56,-0.532 1.202,-0.949 1.926,-1.25 0.723,-0.301 1.511,-0.451 2.361,-0.451 0.851,0 1.638,0.15 2.362,0.451 0.724,0.301 1.358,0.714 1.903,1.239 0.545,0.525 0.974,1.138 1.287,1.838 0.314,0.7 0.47,1.449 0.47,2.247 0,0.812 -0.156,1.568 -0.47,2.268 -0.313,0.7 -0.742,1.319 -1.287,1.859 C 9.764,4.644 9.122,5.064 8.384,5.366 7.645,5.667 6.858,5.817 6.022,5.817 5.171,5.817 4.377,5.663 3.638,5.355 2.899,5.047 2.257,4.627 1.713,4.095 1.168,3.563 0.746,2.943 0.448,2.237 0.149,1.529 0,0.784 0,0 m -2.239,0 c 0,1.05 0.213,2.044 0.638,2.982 0.426,0.938 1.019,1.767 1.78,2.489 0.761,0.721 1.638,1.284 2.63,1.69 0.993,0.406 2.063,0.609 3.213,0.609 1.119,0 2.179,-0.203 3.179,-0.609 0.999,-0.406 1.884,-0.969 2.653,-1.69 0.768,-0.722 1.369,-1.551 1.802,-2.489 0.432,-0.938 0.649,-1.939 0.649,-3.003 0,-1.064 -0.217,-2.065 -0.649,-3.003 -0.433,-0.938 -1.03,-1.761 -1.791,-2.468 -0.761,-0.707 -1.642,-1.26 -2.642,-1.659 -1,-0.399 -2.067,-0.598 -3.201,-0.598 -1.15,0 -2.22,0.196 -3.213,0.588 -0.992,0.392 -1.869,0.941 -2.63,1.648 -0.761,0.707 -1.354,1.526 -1.78,2.457 -0.425,0.931 -0.638,1.95 -0.638,3.056"
         style="fill:#ed1d24;fill-opacity:1;fill-rule:nonzero;stroke:none"
         transform="matrix(1.3333333,0,0,-1.3333333,410.31347,337.0596)"
         clip-path="url(#clipPath42)" />
      <path
         id="path43"
         d="M 0,0 4.231,-6.384 H 1.724 l -4.321,6.321 z m -2.664,1.176 c 0.642,0 1.175,0.091 1.601,0.273 0.425,0.182 0.757,0.416 0.996,0.704 0.238,0.286 0.41,0.591 0.515,0.913 0.104,0.322 0.156,0.637 0.156,0.945 0,0.308 -0.056,0.623 -0.168,0.945 C 0.325,5.278 0.145,5.583 -0.101,5.87 -0.347,6.156 -0.668,6.391 -1.063,6.573 -1.459,6.755 -1.94,6.846 -2.507,6.846 h -2.507 v -5.67 z m -0.224,7.623 c 0.821,0 1.578,-0.101 2.272,-0.304 C 0.078,8.292 0.683,7.991 1.198,7.592 1.712,7.193 2.115,6.699 2.407,6.111 2.698,5.523 2.843,4.851 2.843,4.095 2.843,3.493 2.75,2.905 2.563,2.331 2.376,1.757 2.071,1.235 1.645,0.767 1.22,0.297 0.66,-0.081 -0.034,-0.367 -0.728,-0.655 -1.589,-0.798 -2.619,-0.798 H -5.014 V -6.384 H -7.186 V 8.799 Z"
         style="fill:#ed1d24;fill-opacity:1;fill-rule:nonzero;stroke:none"
         transform="matrix(1.3333333,0,0,-1.3333333,443.83307,338.65573)"
         clip-path="url(#clipPath44)" />
      <path
         id="path45"
         d="M 0,0 C 0.642,0 1.172,0.094 1.589,0.284 2.007,0.473 2.336,0.721 2.574,1.029 2.813,1.337 2.985,1.652 3.089,1.974 3.194,2.296 3.246,2.597 3.246,2.877 3.246,3.185 3.194,3.504 3.089,3.833 2.985,4.161 2.81,4.463 2.563,4.736 2.317,5.009 1.996,5.232 1.601,5.408 1.205,5.583 0.716,5.67 0.134,5.67 H -2.373 V 0 Z M -0.224,7.623 C 0.955,7.623 1.962,7.437 2.798,7.067 3.634,6.696 4.279,6.16 4.735,5.46 5.19,4.76 5.417,3.913 5.417,2.919 5.417,2.317 5.32,1.725 5.127,1.145 4.932,0.563 4.623,0.038 4.197,-0.431 3.772,-0.9 3.216,-1.278 2.53,-1.565 1.843,-1.852 1.007,-1.995 0.022,-1.995 H -2.373 V -7.56 H -4.544 V 7.623 Z"
         style="fill:#ed1d24;fill-opacity:1;fill-rule:nonzero;stroke:none"
         transform="matrix(1.3333333,0,0,-1.3333333,459.98093,337.0876)"
         clip-path="url(#clipPath46)" />
    </g>
  </g>
</svg>
